<svg width="24" height="24" viewBox="0 0 24 24" fill="none" xmlns="http://www.w3.org/2000/svg">
<g id="ic:round-plus">
<path id="Vector" d="M18 12.9985H13V17.9985C13 18.2637 12.8946 18.518 12.7071 18.7056C12.5196 18.8931 12.2652 18.9985 12 18.9985C11.7348 18.9985 11.4804 18.8931 11.2929 18.7056C11.1054 18.518 11 18.2637 11 17.9985V12.9985H6C5.73478 12.9985 5.48043 12.8931 5.29289 12.7056C5.10536 12.518 5 12.2637 5 11.9985C5 11.7333 5.10536 11.4789 5.29289 11.2914C5.48043 11.1038 5.73478 10.9985 6 10.9985H11V5.99847C11 5.73326 11.1054 5.4789 11.2929 5.29137C11.4804 5.10383 11.7348 4.99847 12 4.99847C12.2652 4.99847 12.5196 5.10383 12.7071 5.29137C12.8946 5.4789 13 5.73326 13 5.99847V10.9985H18C18.2652 10.9985 18.5196 11.1038 18.7071 11.2914C18.8946 11.4789 19 11.7333 19 11.9985C19 12.2637 18.8946 12.518 18.7071 12.7056C18.5196 12.8931 18.2652 12.9985 18 12.9985Z" fill="white"/>
</g>
</svg>
